<?xml version="1.0" encoding="UTF-8"?>
<svg width="193px" height="38px" viewBox="0 0 193 38" version="1.1" xmlns="http://www.w3.org/2000/svg" xmlns:xlink="http://www.w3.org/1999/xlink">
    <!-- Generator: Sketch 52.4 (67378) - http://www.bohemiancoding.com/sketch -->
    <title>Logo Ameri100</title>
    <desc>Created with Sketch.</desc>
    <defs>
        <polygon id="path-1" points="0.392292401 0.367333333 46.7077624 0.367333333 46.7077624 38 0.392292401 38"></polygon>
        <polygon id="path-3" points="0 0.468094179 28.953546 0.468094179 28.953546 36.8906424 0 36.8906424"></polygon>
    </defs>
    <g id="Logo-Ameri100" stroke="none" stroke-width="1" fill="none" fill-rule="evenodd">
        <g id="Group-9">
            <path d="M38.426021,13.5663793 C41.0242093,8.71951008 49.7490789,8.81372668 51.0875395,13.8444331 C51.1633744,13.7860648 51.2488697,13.7497569 51.2826814,13.6881715 C53.1316988,10.2949953 56.1795827,9.68971119 59.5235606,10.1607942 C63.2404333,10.6842707 64.8262024,12.5906631 64.917494,16.6157797 C65.0252085,21.3610788 64.9701437,26.1091355 64.9822193,30.856273 C64.9870495,32.6326005 64.9522718,34.4103067 64.9991251,36.1852554 C65.016514,36.8484483 64.7764509,37.0042504 64.1205038,36.9923009 C62.1579757,36.9550739 60.1925494,36.9431245 58.2305043,36.9964373 C57.4393103,37.0175786 57.2031114,36.8176555 57.2084247,36.0409431 C57.2451345,30.7427535 57.2229154,25.4441042 57.2330589,20.1449954 C57.234025,19.2846371 57.1717148,18.433011 57.0514417,17.5823041 C56.8799681,16.3721954 56.382936,15.874456 55.2613533,15.7875929 C53.7084299,15.6662603 52.7588039,16.1479139 52.4221359,17.2863261 C52.1149324,18.3236278 52.0410297,19.395399 52.0386146,20.4699278 C52.0284711,25.645406 51.9980405,30.8218035 52.0333013,35.9972818 C52.0395806,36.8268474 51.7917891,37.0235533 50.957606,36.9973565 C49.0284065,36.9385285 47.0943768,36.9431245 45.1646944,36.9964373 C44.3923384,37.017119 44.2020268,36.7891608 44.205891,36.0735743 C44.2363215,30.6214209 44.226661,25.1697271 44.2170005,19.7180334 C44.2160345,19.0461082 44.1744944,18.3705063 44.0933463,17.7031771 C43.9324992,16.3772509 43.453339,15.8818095 42.3216128,15.7880525 C40.6590428,15.6501746 39.6384123,16.1819238 39.2635853,17.4214465 C38.9496195,18.4573694 38.8515655,19.526383 38.8481844,20.6009118 C38.8317615,25.7157238 38.800365,30.8300762 38.8351427,35.9444286 C38.840939,36.8066253 38.5796228,37.0249321 37.7072807,36.9978161 C35.7457187,36.9371498 33.7798094,36.9550739 31.8172813,36.9923009 C31.1734097,37.00471 30.9990379,36.8080041 31.000004,36.2109926 C31.0173929,27.9107406 31.0159438,19.6104886 31.0019361,11.3102366 C31.00097,10.7674571 31.1449113,10.5537463 31.7549711,10.5638573 C33.7179823,10.5951097 35.6829255,10.6047611 37.6454536,10.559721 C38.3318313,10.5440948 38.4622479,10.8060629 38.4347155,11.3676857 C38.3989717,12.099358 38.426021,12.8333282 38.426021,13.5663793" id="Fill-1" fill="#466eB0"></path>
            <path d="M125.014776,13.941775 C125.014776,11.6187438 125.02455,9.45271884 125.005932,7.28763681 C125.002675,6.87649754 125.173951,6.67234238 125.506265,6.48657532 C128.281132,4.93867369 130.691105,2.94332807 132.651477,0.411898323 C132.890706,0.103072381 133.169496,0.0167897132 133.536251,0.0200901431 C135.087049,0.0323488828 136.640639,0.0818553315 138.187248,0.00311650356 C139.047354,-0.0412035553 139.038045,0.391624253 139.03758,1.01823445 C139.02641,10.599854 139.027806,20.181945 139.031995,29.764036 C139.03246,31.152574 138.852806,31.01207 140.272354,31.0196138 C141.605798,31.0257432 142.940638,31.0479032 144.272686,31.0082981 C144.855399,30.990853 145.012712,31.1893502 144.999215,31.7607961 C144.963377,33.2681496 144.970359,34.7769176 144.996423,36.2847425 C145.0048,36.7930087 144.88379,37.0014073 144.33226,36.9999929 C138.098817,36.9830192 131.865373,36.9844337 125.63193,36.9981069 C125.132994,36.9990499 124.998951,36.8198837 125.005932,36.3403784 C125.029669,34.8009635 125.043632,33.2606058 125.000813,31.7226054 C124.983592,31.0974097 125.240042,31.0026402 125.766903,31.011127 C127.317235,31.038002 128.868033,31.0049977 130.418365,31.0295151 C130.924283,31.0375305 131.13419,30.9003269 131.133259,30.3463261 C131.117435,23.5290524 131.122089,16.7113072 131.117435,9.89403346 C131.117435,9.81340868 131.066703,9.7323124 131.003871,9.54748832 C129.220826,11.2854004 127.350746,12.7960543 125.014776,13.941775" id="Fill-3" fill="#B8373C"></path>
            <path d="M101.949162,16.3447707 C102.424041,15.2697315 102.739152,14.3967256 103.181585,13.5858125 C104.424331,11.3092318 106.215203,9.81622487 109.154436,10.0182581 C109.752213,10.0594988 110.013248,10.1910984 109.999484,10.8212938 C109.956715,12.7962148 109.969988,14.7725259 109.994076,16.7479103 C109.999484,17.2275075 109.877077,17.3591072 109.336817,17.3410354 C106.006768,17.2307512 104.307824,18.4239519 103.413125,21.4572304 C102.997729,22.865439 102.904327,24.3111813 102.904818,25.7652644 C102.90531,29.1919516 102.877781,32.6186388 102.925465,36.0443993 C102.93628,36.8386308 102.670329,37.0188852 101.875915,36.9984965 C99.8471119,36.9470614 97.8153594,36.9637431 95.7850816,36.9924726 C95.1971368,37.00035 94.9985334,36.8469716 95.0000081,36.269138 C95.0177055,27.8727118 95.0177055,19.4762855 95.0004997,11.0798592 C94.999025,10.5099031 95.1804227,10.3384529 95.7786909,10.349574 C97.5789033,10.3810838 99.3810821,10.3810838 101.181786,10.349574 C101.77858,10.3389163 101.974233,10.5061961 101.961944,11.0789325 C101.925566,12.7447797 101.949162,14.4120171 101.949162,16.3447707" id="Fill-5" fill="#466eB0"></path>
            <path d="M119.981037,23.504481 C119.981037,27.6939194 119.960758,31.8842967 119.999833,36.0732657 C120.007252,36.8266605 119.769344,37.0163001 119.005171,36.9989321 C116.93127,36.9510528 114.8544,36.9632574 112.779015,36.9942381 C112.172623,37.0036262 111.999509,36.8229053 112.000498,36.2507008 C112.01781,27.7460234 112.018304,19.2418154 112.000004,10.737138 C111.999014,10.1513208 112.198837,9.99641715 112.789897,10.004397 C114.898421,10.0330307 117.00744,10.04148 119.114975,10.0006418 C119.810891,9.98702905 120.000327,10.1874649 119.995876,10.8413459 C119.966694,15.0622345 119.981037,19.283123 119.981037,23.504481" id="Fill-7" fill="#466eB0"></path>
            <path d="M116.044526,1.01221249 C117.122593,1.01221249 118.201642,1.0272202 119.279218,1.00520889 C119.746086,0.995704011 120.004803,1.08474976 119.999403,1.65104069 C119.975838,3.88118643 119.975348,6.11233269 119.999894,8.34297868 C120.005785,8.90226602 119.766705,8.99981614 119.291492,8.99581408 C117.102465,8.97830508 114.912948,8.97080123 112.724412,8.99981614 C112.160341,9.00681973 111.996373,8.81472104 112.003246,8.25543371 C112.027792,6.09182215 112.034665,3.92721008 112.0003,1.76359852 C111.989991,1.11526544 112.24478,0.982697328 112.810324,1.00170709 C113.886918,1.0377256 114.966458,1.01221249 116.044526,1.01221249" id="Fill-9" fill="#466eB0"></path>
            <g id="Group-13" transform="translate(146.000000, 0.000000)">
                <mask id="mask-2" fill="white">
                    <use xlink:href="#path-1"></use>
                </mask>
                <g id="Clip-12"></g>
                <path d="M37.8182475,28.9894494 C37.4585347,31.2178444 36.061099,32.3794247 34.1592277,32.0819926 C32.8539307,31.8774494 31.9627921,30.9326099 31.6137822,29.3291037 C31.173099,27.3043136 31.1777525,25.2396469 31.0679307,23.1820173 C30.8892376,19.8413012 31.0330297,16.506684 31.1428515,13.1701901 C31.1903168,11.7336963 31.3215446,10.302363 31.6565941,8.90152346 C32.0656337,7.19199259 33.1452376,6.26028889 34.6850693,6.24949877 C36.1923267,6.23917778 37.2067822,7.09019012 37.6525842,8.82927654 C38.1667921,10.8395235 38.198901,12.9074741 38.2612574,14.9646346 C38.3045347,16.399721 38.2696337,17.8376222 38.2696337,19.2736469 C38.2756832,22.5181901 38.3380396,25.7711778 37.8182475,28.9894494 M15.8692475,26.7024123 C15.7831584,27.6317704 15.6682178,28.5662889 15.4699802,29.4764123 C15.0995644,31.1709309 13.960396,32.1401654 12.4531386,32.1429802 C10.9570495,32.1457951 9.823,31.1760914 9.41721782,29.4834494 C8.88113861,27.2513012 8.93232673,24.9595728 8.81319802,22.6880173 C8.75270297,21.5353506 8.8020297,20.3770543 8.8020297,19.2211037 C8.84809901,15.7907827 8.71361386,12.3431037 9.41675248,8.95922716 C9.83416832,6.94851111 11.3153663,5.95581975 13.1381287,6.32502963 C14.5188119,6.60463457 15.1437723,7.62031358 15.4332178,8.8654 C16.0228119,11.404363 16.0609703,14.0019679 16.0786535,16.5911284 C16.1014554,19.9628074 16.1791683,23.3382395 15.8692475,26.7024123 M45.144198,7.75354815 C44.0292277,4.56154815 42.192505,2.03619012 38.8438713,0.994239506 C36.3351881,0.214066667 33.7785743,0.174190123 31.2205644,0.806116049 C28.506198,1.47651111 26.5052079,3.07157284 25.1640792,5.53359753 C24.4730396,6.8016716 24.0295644,8.16263457 23.6242475,9.61273333 C23.3282871,9.31764691 23.3329406,8.98643704 23.2380099,8.6951037 C22.3208119,5.88028889 21.1011386,3.27330123 18.3709505,1.76080741 C16.0577129,0.479597531 13.5429802,0.225795062 10.9714752,0.456609877 C6.533,0.853498765 3.58642574,3.21935062 2.07730693,7.43781975 C1.1010099,10.167721 0.700346535,12.9984864 0.524445545,15.8794494 C0.246168317,20.4544617 0.322950495,25.0032025 1.59008911,29.4454494 C2.21970297,31.6513259 3.10293069,33.7568074 4.82610891,35.3659432 C7.2310198,37.6116963 10.1789901,38.0831778 13.3014653,37.9344617 C18.1052376,37.7059926 21.1616337,35.4395975 22.807099,30.8946099 C23.0583861,30.1998198 23.2859406,29.4970543 23.5549109,28.7098444 C23.8787921,29.6467086 24.1319406,30.477079 24.4511683,31.2802395 C25.0677525,32.8283877 25.8551188,34.2723877 27.0989901,35.4180173 C30.3987624,38.4589556 37.1323267,38.8872765 41.0547327,36.311721 C43.4619703,34.7312025 44.6565149,32.3362642 45.449,29.6781407 C46.3489802,26.6611284 46.6160891,23.5502889 46.6872871,20.4216222 C46.7850099,16.1262148 46.5802574,11.8636469 45.144198,7.75354815" id="Fill-11" fill="#B8373C" mask="url(#mask-2)"></path>
            </g>
            <g id="Group-16">
                <mask id="mask-4" fill="white">
                    <use xlink:href="#path-3"></use>
                </mask>
                <g id="Clip-15"></g>
                <path d="M16.9634097,23.1388633 C15.0026355,23.1210658 13.0409258,23.1145089 11.0801516,23.1412051 C10.3570226,23.1505722 10.5506677,22.7477873 10.6437484,22.3543696 C11.5329258,18.5995722 12.422571,14.8447747 13.3117484,11.0895089 C13.4890226,10.3415468 13.6672323,9.59311646 13.8449742,8.84515443 C13.9095226,8.83766076 13.974071,8.83016709 14.0386194,8.82314177 C15.1569903,13.3853823 16.2716194,17.9480911 17.3993452,22.5079899 C17.5036516,22.9299772 17.483071,23.1440152 16.9634097,23.1388633 M28.8856839,36.1595848 C25.5483452,24.5013063 22.2357968,12.8364709 18.9349419,1.16835696 C18.7745065,0.600711392 18.4793613,0.471913924 17.9363129,0.478939241 C15.8473774,0.507040506 13.7570387,0.529989873 11.6695065,0.469572152 C10.910829,0.447091139 10.5894903,0.677521519 10.3733935,1.40487595 C7.29424839,11.774243 4.18610323,22.1351797 1.08357097,32.4979899 C0.761764516,33.5728633 0.402070968,34.6374329 0.107393548,35.7193316 C-0.146590323,36.6504203 0.0227322581,36.8635215 0.903958065,36.8653949 C2.71224839,36.8691418 4.52194194,36.8302684 6.32882903,36.8855342 C7.01407097,36.9061418 7.23718387,36.6471418 7.37002258,36.0284456 C7.78303871,34.1095975 8.28211935,32.2085468 8.68390968,30.2878253 C8.8335871,29.5731165 9.13060323,29.3422177 9.86729677,29.3543949 C12.6728129,29.4002937 15.4797323,29.3857747 18.2857161,29.362357 C18.8442,29.3572051 19.1150226,29.5009899 19.2441194,30.0897114 C19.6721032,32.0371291 20.2072,33.9615975 20.6094581,35.9136987 C20.7689581,36.6878886 21.0795387,36.9356481 21.8499097,36.8841291 C22.8742645,36.8143443 23.906571,36.8668 24.9356032,36.8668 C26.0581839,36.8668 27.1812323,36.8499392 28.3033452,36.8738253 C28.847329,36.8850658 29.0802645,36.8391671 28.8856839,36.1595848" id="Fill-14" fill="#466eB0" mask="url(#mask-4)"></path>
            </g>
            <path d="M76.9060698,20.1710809 C76.9830002,19.0181603 77.1176282,17.8820638 77.6050101,16.8193392 C78.1697913,15.5869713 79.1506531,14.971021 80.5035012,15.0093426 C81.8488439,15.0476643 82.809535,15.7010015 83.3264693,16.9497263 C83.7613133,18.0021694 83.8673271,19.1083564 83.8579453,20.2393122 C83.8541926,20.7416995 83.6590523,20.88377 83.1904339,20.8730213 C82.2236448,20.8510564 81.2563865,20.8664786 80.2891283,20.8664786 C79.3842586,20.8664786 78.4784508,20.8412423 77.5749885,20.8762926 C77.0299089,20.8973228 76.8713573,20.6973025 76.9060698,20.1710809 M90.4073439,28.5705307 C88.6609314,28.4831387 86.9126426,28.3929426 85.1723283,28.2256359 C84.392705,28.150862 84.1140671,28.4163095 84.0685656,29.1575061 C84.0422967,29.5818482 83.8907815,30.0089943 83.7373899,30.4132409 C83.0970855,32.0979912 81.7761354,32.9111578 80.0072067,32.7377757 C78.5173851,32.5919665 77.470382,31.5292419 77.1171592,29.8617832 C76.8436812,28.5695961 76.9032553,27.2629215 76.8600992,25.957649 C76.8403976,25.3557188 77.0847921,25.2337438 77.6298717,25.2402865 C79.724347,25.2655227 81.8188223,25.2505679 83.9132977,25.2505679 C85.9763441,25.2505679 88.0398597,25.2211257 90.1019679,25.2664574 C90.7985628,25.2823469 91.079077,25.1024221 90.9810378,24.388331 C90.778392,22.9096764 90.8679877,21.4062529 90.6001388,19.9304023 C90.1568512,17.4909026 89.5404703,15.1434684 87.8118832,13.2171048 C83.4334212,8.3376381 73.1899593,8.53719105 70.1985888,17.1002088 C68.7017309,21.3847554 68.6388732,25.7711815 69.8312934,30.1491955 C70.4054564,32.2568858 71.4510522,34.1285709 73.1106835,35.6016175 C75.4988076,37.7209912 78.3846334,38.1556148 81.4337016,37.9565291 C86.8061598,37.6050916 89.8064429,34.2126916 90.8421879,29.1271292 C90.9228709,28.7294253 90.8417188,28.5924956 90.4073439,28.5705307" id="Fill-17" fill="#466eB0"></path>
        </g>
    </g>
</svg>
